<?xml version="1.0" encoding="UTF-8"?>
<svg id="Layer_1" data-name="Layer 1"
  xmlns="http://www.w3.org/2000/svg" viewBox="0 0 458.2782 501.9549">
  <defs>
    <style>
      .cls-1 {
        fill: #fff;
      }
    </style>
  </defs>
  <polygon class="cls-1" points="119.84 33.4549 119.84 384.4549 106.2499 326.2149 91.84 264.4549 91.17 238.6748 85.84 33.4549 119.84 33.4549"/>
  <path class="cls-1" d="m280.84,150.9549v284.5l-.38.75-29.39,57.47c-1.38.78-2.79,1.5-4.23,2.16V150.9549h34Z"/>
  <path class="cls-1" d="m251.0699,493.6748l-4.23,8.28v-6.12c1.44-.66,2.85-1.38,4.23-2.16Z"/>
  <path class="cls-1" d="m316.84,358.4549l-29.8228,74.0133,1.542-350.6545L322.9191,0c-1.4387,84.8339-2.8774,169.6678-4.3161,254.5017-.5876,34.651-1.1753,69.3021-1.763,103.9531Z"/>
  <path class="cls-1" d="m120.34,2.4549c-18.4956-4.2371-34.7818-2.1462-45,0,7.9962,31.1706,25.3211,76.5431,65,114,74.5882,70.4114,196.9412,83.3748,312,35-4.6718-19.4201-13.5278-29.8526-19-35-2.4942-2.3462-6.6506-6.1866-9-5-4.2171,2.1298,3.629,17.3031,1,26-6.8227,22.5701-96.5784,42.4852-164,4C188.8597,100.0822,189.7245,18.3499,120.34,2.4549Z"/>
  <path class="cls-1" d="m361.5208,214.4336c23.7798-4.9489,40.0894.466,47.6596,3.7447,42.5326,18.4212,54.5428,75.6758,46.9787,113.3617-3.8422,19.1426-14.6674,42.8653-23.8298,42.2128-8.313-.592-14.7753-21.215-13.2766-22.1277.9808-.5973,4.6572,7.682,8.5107,7.1489,7.1929-.995,12.1495-32.3007,6.3472-60.9619-3.6015-17.7902-7.6149-37.6145-25.7515-50.0168-18.5188-12.6637-45.6346-13.399-65.3617,0-25.3657,17.2289-25.2101,48.7899-25.1637,58.2135.0703,14.2562,4.0071,25.6438,7.1211,32.6801-2.8444,7.1002-5.6888,14.2003-8.5332,21.3005,1.0288-39.3271,1.563-78.5703,2.5918-117.8975,2.3577-3.7429,6.1461-8.1624,10.7074-12.3392,11.8562-10.8568,25.2045-14.1647,32-15.3192Z"/>
  <path class="cls-1" d="m102.84,326.2149c-10.67,12.74-26.7,20.84-44.62,20.84-32.15,0-58.22-26.07-58.22-58.22s26.07-58.21,58.22-58.21c10.78,0,20.88,2.93,29.54,8.05l.67,25.78,14.41,61.76Z"/>
  <path class="cls-1" d="m218.6299,384.6648c8.64,0,16.83,1.88,24.21,5.26v105.91c-7.38,3.38-15.57,5.26-24.21,5.26-32.15,0-58.22-26.0601-58.22-58.21s26.07-58.22,58.22-58.22Z"/>
</svg>