<?xml version="1.0" encoding="UTF-8"?>
<svg id="Layer_2" data-name="Layer 2"
  xmlns="http://www.w3.org/2000/svg" fill="white" viewBox="0 0 1172.7335 304.4901">
  <g id="Layer_1-2" data-name="Layer 1">
    <g>
      <polygon points="55.5657 53.2124 55.5657 215.9592 49.2645 188.9553 42.5831 160.3193 42.2724 148.366 39.8011 53.2124 55.5657 53.2124"/>
      <path d="m130.216,107.6932v131.913l-.1762.3477-13.6272,26.6469c-.6399.3617-1.2936.6955-1.9613,1.0015V107.6932h15.7646Z"/>
      <path d="m55.7976,38.8388c-8.5758-1.9646-16.1271-.9951-20.865,0,3.7076,14.4528,11.7405,35.4904,30.1383,52.8579,34.584,32.6474,91.315,38.6581,144.6638,16.2283-2.1662-9.0045-6.2724-13.8416-8.8097-16.2283-1.1565-1.0878-3.0836-2.8685-4.173-2.3183-1.9553.9875,1.6826,8.0229.4637,12.0553-3.1635,10.465-44.7801,19.6989-76.0412,1.8547-33.6066-19.1831-33.2057-57.0796-65.3769-64.4496Z"/>
      <path d="m47.6834,188.9553c-4.9473,5.9071-12.3799,9.6628-20.6888,9.6628-14.9068,0-26.9946-12.0878-26.9946-26.9946s12.0878-26.99,26.9946-26.99c4.9983,0,9.6814,1.3585,13.6967,3.7325l.3106,11.9533,6.6814,28.636Z"/>
      <path d="m101.3713,216.0566c4.0061,0,7.8035.8717,11.2254,2.4389v49.1069c-3.4219,1.5672-7.2193,2.4389-11.2254,2.4389-14.9068,0-26.9946-12.0832-26.9946-26.99s12.0878-26.9947,26.9946-26.9947Z"/>
      <g>
        <path d="m242.3468,214.079c0,5.9932-.8818,11.3564-2.6436,16.0889-1.7627,4.7334-4.3555,8.7363-7.7793,12.0088-3.4248,3.2744-7.6553,5.7666-12.6895,7.4775-5.0361,1.7119-10.8271,2.5684-17.3721,2.5684-6.1436,0-11.6572-.7686-16.541-2.3037-4.8848-1.5352-9.0146-3.8643-12.3877-6.9863-3.374-3.1221-5.9551-7.0117-7.7412-11.6699-1.7881-4.6572-2.6816-10.1084-2.6816-16.3525v-59.4424c0-.5029.1514-.9561.4531-1.3594.3027-.4023.8428-.7295,1.624-.9824.7803-.251,1.7998-.4531,3.0586-.6035,1.2588-.1514,2.8701-.2266,4.834-.2266,1.9131,0,3.5.0752,4.7588.2266,1.2578.1504,2.2656.3525,3.0215.6035.7549.2529,1.2959.5801,1.624.9824.3262.4033.4902.8564.4902,1.3594v57.7051c0,3.8779.4785,7.2393,1.4355,10.084.9561,2.8447,2.3281,5.1992,4.1162,7.0615,1.7871,1.8643,3.9277,3.2607,6.4199,4.1924,2.4932.9326,5.2744,1.3975,8.3467,1.3975,3.1211,0,5.916-.4785,8.3838-1.4355,2.4668-.9561,4.5566-2.3535,6.2686-4.1914s3.0332-4.1035,3.9658-6.7979c.9307-2.6934,1.3975-5.752,1.3975-9.1777v-58.8379c0-.5029.1504-.9561.4531-1.3594.3018-.4023.8311-.7295,1.5859-.9824.7559-.251,1.7754-.4531,3.0586-.6035,1.2842-.1514,2.8828-.2266,4.7969-.2266,1.9131,0,3.4863.0752,4.7207.2266,1.2334.1504,2.2275.3525,2.9834.6035.7549.2529,1.2842.5801,1.5859.9824.3018.4033.4531.8564.4531,1.3594v58.6113Z"/>
        <path d="m321.503,221.1796c0,5.1357-.957,9.6426-2.8701,13.5195-1.9141,3.8779-4.5068,7.1133-7.7803,9.7061-3.2734,2.5938-7.0996,4.5449-11.4805,5.8535s-9.0635,1.9639-14.0488,1.9639c-3.374,0-6.5078-.2773-9.4033-.8311-2.8965-.5547-5.4512-1.2197-7.666-2.001-2.2168-.7803-4.0674-1.5986-5.5518-2.4551-1.4863-.8555-2.5566-1.6113-3.21-2.2656-.6553-.6543-1.1211-1.5986-1.3975-2.833-.2773-1.2334-.415-3.0078-.415-5.3252,0-1.5596.0488-2.8701.1504-3.9268.1006-1.0576.2646-1.9131.4912-2.5684.2266-.6543.5283-1.1201.9062-1.3975.3779-.2764.8184-.415,1.3223-.415.7041,0,1.6992.415,2.9834,1.2461s2.9326,1.75,4.9473,2.7568c2.0127,1.0078,4.418,1.9258,7.2129,2.7568s6.0293,1.2461,9.7061,1.2461c2.417,0,4.5811-.2891,6.4951-.8682,1.9131-.5791,3.5371-1.3975,4.8721-2.4551,1.333-1.0576,2.3535-2.3662,3.0586-3.9277.7051-1.5605,1.0576-3.2969,1.0576-5.2119,0-2.2148-.6045-4.1162-1.8125-5.7021-1.209-1.5859-2.7832-2.9951-4.7207-4.2295-1.9395-1.2334-4.1426-2.3916-6.6094-3.4746-2.4678-1.082-5.0107-2.2285-7.6279-3.4365-2.6191-1.209-5.1621-2.5801-7.6289-4.1162-2.4678-1.5361-4.6709-3.373-6.6094-5.5137-1.9385-2.1396-3.5117-4.6699-4.7207-7.5908-1.208-2.9199-1.8125-6.4209-1.8125-10.499,0-4.6836.8691-8.7998,2.6064-12.3496,1.7363-3.5498,4.0781-6.4951,7.0234-8.8369,2.9463-2.3418,6.4209-4.0908,10.4238-5.249s8.2441-1.7373,12.7266-1.7373c2.3154,0,4.6328.1768,6.9492.5283,2.3154.3525,4.4805.8311,6.4951,1.4355,2.0137.6035,3.8018,1.2832,5.3633,2.0391,1.5596.7549,2.5928,1.3857,3.0967,1.8877.5029.5049.8428.9326,1.0195,1.2842.1758.3535.3271.8193.4531,1.3975.125.5801.2139,1.3105.2646,2.1904.0488.8818.0752,1.9766.0752,3.2861,0,1.4609-.0381,2.6943-.1133,3.7002-.0752,1.0078-.2021,1.8389-.3779,2.4932-.1768.6543-.4277,1.1328-.7549,1.4346-.3281.3027-.7686.4531-1.3223.4531-.5547,0-1.4346-.3516-2.6436-1.0566-1.208-.7051-2.6943-1.4736-4.4561-2.3037-1.7627-.8311-3.8027-1.5869-6.1182-2.2666-2.3164-.6797-4.8594-1.0195-7.6279-1.0195-2.166,0-4.0547.2646-5.665.793-1.6123.5293-2.959,1.2598-4.041,2.1904-1.083.9326-1.8887,2.0527-2.417,3.3613-.5283,1.3096-.793,2.6943-.793,4.1543,0,2.165.5908,4.041,1.7744,5.627,1.1826,1.5859,2.7695,2.9961,4.7588,4.2295,1.9883,1.2344,4.2412,2.3926,6.7598,3.4746,2.5176,1.083,5.0859,2.2285,7.7041,3.4365,2.6182,1.209,5.1855,2.5811,7.7041,4.1162,2.5176,1.5371,4.7588,3.374,6.7227,5.5137,1.9639,2.1416,3.5498,4.6582,4.7588,7.5537,1.208,2.8955,1.8125,6.3066,1.8125,10.2344Z"/>
        <path d="m356.6251,247.7665c0,.5039-.1641.957-.4912,1.3594-.3281.4033-.8682.7305-1.624.9814-.7549.2529-1.7627.4531-3.0205.6045-1.2598.1514-2.8701.2266-4.834.2266-1.9141,0-3.5127-.0752-4.7969-.2266-1.2832-.1514-2.3037-.3516-3.0586-.6045-.7549-.251-1.2969-.5781-1.624-.9814-.3281-.4023-.4912-.8555-.4912-1.3594v-92.2988c0-.5029.1631-.9561.4912-1.3594.3271-.4023.8809-.7295,1.6621-.9824.7803-.251,1.7998-.4531,3.0586-.6035,1.2578-.1514,2.8447-.2266,4.7588-.2266,1.9639,0,3.5742.0752,4.834.2266,1.2578.1504,2.2656.3525,3.0205.6035.7559.2529,1.2959.5801,1.624.9824.3271.4033.4912.8564.4912,1.3594v92.2988Z"/>
        <path d="m445.5245,235.6815c0,1.2588-.0381,2.3291-.1133,3.21-.0762.8818-.1895,1.6367-.3398,2.2656-.1514.6299-.3535,1.1709-.6045,1.624-.2529.4531-.6553.9697-1.208,1.5488-.5547.5791-1.624,1.3213-3.2109,2.2275-1.5859.9062-3.5244,1.7754-5.8154,2.6055-2.292.8311-4.9092,1.5225-7.8555,2.0771-2.9453.5537-6.1309.8311-9.5547.8311-6.6973,0-12.7393-1.0322-18.127-3.0967-5.3887-2.0645-9.9697-5.1475-13.7471-9.252-3.7764-4.1035-6.6719-9.2266-8.6855-15.3711-2.0146-6.1426-3.0215-13.293-3.0215-21.4502,0-8.3086,1.1074-15.6846,3.3232-22.1309,2.2158-6.4453,5.3125-11.8584,9.29-16.2393s8.749-7.7041,14.3135-9.9697c5.5635-2.2656,11.6943-3.3994,18.3916-3.3994,2.7197,0,5.3369.2266,7.8555.6797,2.5176.4541,4.8457,1.0459,6.9863,1.7754,2.1396.7305,4.0654,1.5742,5.7783,2.5303,1.7109.957,2.9082,1.7754,3.5879,2.4551s1.1445,1.2461,1.3975,1.6992c.251.4531.4531,1.0322.6035,1.7373.1514.7061.2646,1.5361.3398,2.4922.0762.957.1133,2.1406.1133,3.5498,0,1.5107-.0508,2.7949-.1504,3.8525-.1016,1.0576-.2773,1.9141-.5293,2.5674-.252.6553-.5547,1.1338-.9062,1.4355-.3525.3018-.7549.4531-1.208.4531-.7559,0-1.7129-.4404-2.8701-1.3213-1.1592-.8809-2.6572-1.8623-4.4941-2.9463-1.8389-1.082-4.0293-2.0635-6.5713-2.9453-2.543-.8809-5.5771-1.3223-9.1016-1.3223-3.8779,0-7.3398.793-10.3857,2.3799-3.0469,1.5859-5.6396,3.8516-7.7793,6.7979-2.1406,2.9453-3.7646,6.5078-4.8721,10.6875-1.1084,4.1797-1.6611,8.8877-1.6611,14.124,0,5.7402.5908,10.7139,1.7744,14.917,1.1826,4.2051,2.8701,7.667,5.0605,10.3857s4.834,4.7461,7.9307,6.0801c3.0967,1.335,6.583,2.002,10.4609,2.002,3.5244,0,6.5713-.416,9.1396-1.2471,2.5684-.8301,4.7705-1.749,6.6084-2.7568,1.8379-1.0059,3.3486-1.9131,4.5322-2.7188,1.1826-.8047,2.1016-1.208,2.7568-1.208.5029,0,.9062.1006,1.209.3018.3018.2021.5527.6045.7549,1.208.2002.6045.3516,1.4482.4531,2.5303.1006,1.084.1514,2.5303.1514,4.3438Z"/>
        <path d="m539.8614,243.0829c.6045,1.8135.9824,3.248,1.1338,4.3057.1504,1.0576-.0508,1.8506-.6045,2.3789-.5547.5293-1.5371.8555-2.9463.9824-1.4102.125-3.3486.1885-5.8154.1885-2.5684,0-4.5693-.0381-6.0049-.1133-1.4346-.0752-2.5303-.2266-3.2852-.4531-.7559-.2266-1.2842-.541-1.5859-.9443-.3027-.4023-.5547-.9307-.7559-1.5859l-6.5713-19.6377h-36.708l-6.1934,19.1094c-.2012.7051-.4658,1.2969-.793,1.7744-.3281.4795-.8564.8574-1.5859,1.1328-.7305.2764-1.7637.4648-3.0967.5664-1.335.1006-3.085.1514-5.25.1514-2.3164,0-4.1289-.0752-5.4375-.2266-1.3105-.1514-2.2168-.5156-2.7197-1.0947-.5039-.5791-.6797-1.3975-.5283-2.4551s.5283-2.4668,1.1328-4.2295l30.1367-86.71c.3018-.8555.6543-1.5479,1.0576-2.0771.4023-.5283,1.0439-.9307,1.9258-1.208.8809-.2764,2.1016-.4531,3.6631-.5283,1.5605-.0762,3.626-.1133,6.1934-.1133,2.9707,0,5.3369.0371,7.1006.1133,1.7617.0752,3.1348.252,4.1162.5283.9814.2773,1.6865.6924,2.1152,1.2461.4268.5547.793,1.3105,1.0947,2.2656l30.2119,86.6338Zm-44.8652-71.6787h-.0752l-13.8223,41.542h27.7197l-13.8223-41.542Z"/>
        <path d="m607.2364,242.1766c0,1.5107-.0645,2.7832-.1895,3.8145-.126,1.0322-.3145,1.8887-.5664,2.5684s-.5664,1.1709-.9443,1.4727c-.377.3018-.8184.4531-1.3213.4531h-44.79c-1.6611,0-3.0586-.4912-4.1914-1.4727-1.1328-.9824-1.7002-2.5801-1.7002-4.7969v-88.748c0-.5029.1631-.9561.4912-1.3594.3271-.4023.8691-.7295,1.624-.9824.7549-.251,1.7754-.4531,3.0586-.6035,1.2842-.1514,2.8828-.2266,4.7969-.2266,1.9639,0,3.5742.0752,4.834.2266,1.2578.1504,2.2656.3525,3.0205.6035.7559.2529,1.2959.5801,1.624.9824.3271.4033.4912.8564.4912,1.3594v78.627h30.7412c.5029,0,.9443.1396,1.3213.416.3779.2773.6924.7305.9443,1.3594.252.6299.4404,1.4609.5664,2.4922.125,1.0332.1895,2.3037.1895,3.8145Z"/>
        <path d="m908.8292,243.0829c.6045,1.8135.9824,3.248,1.1338,4.3057.1504,1.0576-.0508,1.8506-.6045,2.3789-.5547.5293-1.5371.8555-2.9463.9824-1.4102.125-3.3486.1885-5.8154.1885-2.5684,0-4.5693-.0381-6.0049-.1133-1.4346-.0752-2.5303-.2266-3.2852-.4531-.7559-.2266-1.2842-.541-1.5859-.9443-.3027-.4023-.5547-.9307-.7559-1.5859l-6.5713-19.6377h-36.708l-6.1934,19.1094c-.2012.7051-.4658,1.2969-.793,1.7744-.3281.4795-.8564.8574-1.5859,1.1328-.7305.2764-1.7637.4648-3.0967.5664-1.335.1006-3.085.1514-5.25.1514-2.3164,0-4.1289-.0752-5.4375-.2266-1.3105-.1514-2.2168-.5156-2.7197-1.0947-.5039-.5791-.6797-1.3975-.5283-2.4551s.5283-2.4668,1.1328-4.2295l30.1367-86.71c.3018-.8555.6543-1.5479,1.0576-2.0771.4023-.5283,1.0439-.9307,1.9258-1.208.8809-.2764,2.1016-.4531,3.6631-.5283,1.5605-.0762,3.626-.1133,6.1934-.1133,2.9707,0,5.3369.0371,7.1006.1133,1.7617.0752,3.1348.252,4.1162.5283.9814.2773,1.6865.6924,2.1152,1.2461.4268.5547.793,1.3105,1.0947,2.2656l30.2119,86.6338Zm-44.8652-71.6787h-.0752l-13.8223,41.542h27.7197l-13.8223-41.542Z"/>
        <path d="m963.212,247.0106c-.2529.8574-.5801,1.5488-.9824,2.0771-.4033.5293-1.0576.9326-1.9639,1.209-.9062.2754-2.1406.4531-3.7012.5283s-3.6006.1133-6.1172.1133c-2.0146,0-3.7393-.0127-5.1738-.0381-1.4355-.0254-2.6572-.0879-3.6641-.1885-1.0078-.1016-1.8252-.251-2.4541-.4531-.6309-.2002-1.1592-.4531-1.5869-.7549-.4277-.3027-.7549-.667-.9814-1.0957-.2266-.4268-.4414-.9688-.6416-1.624l-29.0801-86.6338c-.6035-1.8125-.9697-3.248-1.0947-4.3047-.126-1.0576.125-1.8506.7549-2.3799.6289-.5283,1.7002-.8555,3.21-.9814,1.5107-.125,3.626-.1885,6.3447-.1885,2.3154,0,4.1289.0508,5.4385.1504,1.3086.1016,2.3154.2773,3.0215.5293.7041.252,1.1953.6299,1.4727,1.1328.2764.5039.54,1.1328.793,1.8877l23.792,75.3799h.0762l23.3389-75.002c.2002-.8555.4531-1.5479.7549-2.0771.3027-.5283.8184-.9443,1.5488-1.2461.7295-.3018,1.7744-.5029,3.1338-.6045,1.3604-.0996,3.2227-.1504,5.5898-.1504,2.3154,0,4.1162.0752,5.4004.2266,1.2842.1504,2.1641.5166,2.6436,1.0947.4775.5791.6289,1.3975.4531,2.4551-.1768,1.0576-.5664,2.4678-1.1709,4.2295l-29.1543,86.709Z"/>
        <path d="m1063.9698,242.7059c0,1.4609-.0635,2.6807-.1895,3.6631-.126.9814-.3145,1.7744-.5664,2.3789s-.5664,1.0459-.9434,1.3223c-.3779.2773-.793.415-1.2471.415h-49.0947c-1.6611,0-3.0586-.4912-4.1914-1.4727-1.1328-.9824-1.7002-2.5801-1.7002-4.7969v-85.1982c0-2.2148.5674-3.8145,1.7002-4.7959,1.1328-.9824,2.5303-1.4727,4.1914-1.4727h48.793c.4531,0,.8555.126,1.209.377.3516.2529.6533.6934.9062,1.3223.251.6299.4395,1.4346.5664,2.417.125.9814.1885,2.2275.1885,3.7383,0,1.4102-.0635,2.6064-.1885,3.5879-.127.9824-.3154,1.7754-.5664,2.3789-.2529.6045-.5547,1.0459-.9062,1.3223-.3535.2773-.7559.415-1.209.415h-34.8955v23.8682h29.5332c.4531,0,.8682.1387,1.2461.415.3779.2773.6914.7061.9443,1.2842.251.5791.4395,1.3594.5664,2.3418.125.9814.1885,2.1787.1885,3.5879,0,1.4609-.0635,2.6689-.1885,3.625-.127.957-.3154,1.7256-.5664,2.3037-.2529.5791-.5664.9951-.9443,1.2461-.3779.2529-.793.3779-1.2461.3779h-29.5332v27.5684h35.1973c.4541,0,.8691.1396,1.2471.416.377.2773.6914.7168.9434,1.3213s.4404,1.3975.5664,2.3789c.126.9824.1895,2.2041.1895,3.6641Z"/>
        <path d="m1162.0841,243.536c0,1.1592-.2021,2.1904-.6045,3.0967-.4033.9072-.9443,1.6621-1.624,2.2666s-1.4854,1.0459-2.417,1.3213c-.9316.2764-1.876.416-2.832.416h-8.46c-1.7627,0-3.2852-.1758-4.5693-.5293-1.2842-.3516-2.4678-.9932-3.5498-1.9258-1.083-.9307-2.1279-2.1904-3.1348-3.7764-1.0078-1.5859-2.1406-3.6377-3.3984-6.1562l-24.3213-45.6953c-1.4102-2.7197-2.8447-5.6523-4.3047-8.7998-1.4609-3.1465-2.7705-6.2051-3.9277-9.1768h-.1514c.2012,3.625.3516,7.2393.4531,10.8389.1006,3.6006.1514,7.3145.1514,11.1406v51.1338c0,.5039-.1396.957-.416,1.3594-.2773.4043-.7549.7441-1.4346,1.0205-.6797.2773-1.5996.4902-2.7568.6416-1.1592.1514-2.6436.2266-4.4561.2266-1.7637,0-3.2236-.0752-4.3809-.2266-1.1592-.1514-2.0654-.3643-2.7197-.6416-.6543-.2764-1.1074-.6162-1.3594-1.0205-.252-.4023-.3779-.8555-.3779-1.3594v-87.8418c0-2.3662.6924-4.1416,2.0771-5.3252,1.3848-1.1826,3.084-1.7744,5.0986-1.7744h10.6494c1.9131,0,3.5244.1641,4.834.4902,1.3096.3281,2.4795.8691,3.5127,1.624,1.0312.7559,2.002,1.8008,2.9082,3.1348.9062,1.335,1.8369,2.9834,2.7939,4.9473l19.0342,35.7256c1.1064,2.166,2.2021,4.2939,3.2852,6.3828,1.083,2.0898,2.127,4.1797,3.1348,6.2686,1.0068,2.0908,1.9883,4.1426,2.9453,6.1562.9561,2.0146,1.8887,4.0293,2.7949,6.042h.0762c-.1514-3.5234-.2646-7.2002-.3408-11.0273-.0752-3.8262-.1133-7.4775-.1133-10.9521v-45.8467c0-.5029.1514-.9561.4541-1.3594.3018-.4023.8047-.7559,1.5098-1.0576s1.6357-.5156,2.7949-.6416c1.1582-.126,2.6436-.1895,4.4561-.1895,1.7119,0,3.1465.0635,4.3057.1895,1.1572.126,2.0508.3398,2.6816.6416.6289.3018,1.0693.6553,1.3213,1.0576.252.4033.3779.8564.3779,1.3594v87.8418Z"/>
      </g>
      <path d="m701.8191,239.7613l-19.9477,49.5056,1.0314-234.5438L705.8852,0c-.9623,56.7432-1.9246,113.4865-2.887,170.2297-.3931,23.1772-.7861,46.3544-1.1792,69.5316Z"/>
      <path d="m731.7049,143.4292c15.9057-3.3102,26.8148.3117,31.8783,2.5047,28.449,12.3215,36.4823,50.6176,31.4229,75.8247-2.5699,12.804-9.8107,28.6715-15.9391,28.235-5.5603-.396-9.8828-14.1901-8.8804-14.8006.6561-.3995,3.1151,5.1383,5.6926,4.7817,4.8112-.6655,8.1265-21.6051,4.2455-40.7759-2.409-11.8994-5.0934-25.1594-17.2245-33.455-12.3868-8.4704-30.5238-8.9622-43.7188,0-16.9665,11.524-16.8624,32.6343-16.8313,38.9375.047,9.5356,2.6802,17.1525,4.7631,21.8589-1.9026,4.7491-3.8051,9.4982-5.7077,14.2474.6881-26.3049,1.0454-52.5537,1.7336-78.8586,1.577-2.5035,4.111-5.4596,7.1619-8.2534,7.9303-7.2618,16.8587-9.4744,21.404-10.2466Z"/>
    </g>
  </g>
</svg>